<?xml version="1.0" standalone="no"?>
<!DOCTYPE svg PUBLIC "-//W3C//DTD SVG 20010904//EN"
 "http://www.w3.org/TR/2001/REC-SVG-20010904/DTD/svg10.dtd">
<svg version="1.0" xmlns="http://www.w3.org/2000/svg"
 width="300.000000pt" height="300.000000pt" viewBox="0 0 300.000000 300.000000"
 preserveAspectRatio="xMidYMid meet">
<metadata>
Created by potrace 1.11, written by Peter Selinger 2001-2013
</metadata>
<g transform="translate(0.000000,300.000000) scale(0.100000,-0.100000)"
fill="#000000" stroke="none">
<path d="M40 2965 c18 -29 20 -38 10 -50 -7 -8 -21 -15 -31 -15 -22 0 -25 -15
-5 -23 7 -3 18 -25 24 -49 14 -54 3 -104 -22 -100 -16 3 -17 -7 -13 -110 3
-62 8 -132 11 -156 4 -25 1 -52 -5 -64 -9 -17 -8 -24 5 -34 16 -11 16 -15 2
-49 -13 -31 -16 -127 -16 -694 0 -578 2 -660 15 -665 17 -6 19 4 15 75 -1 42
1 47 24 53 14 3 26 13 26 20 0 8 -7 12 -17 10 -34 -8 -44 9 -35 62 10 54 9
105 -1 121 -8 12 1 43 12 43 4 0 12 -5 19 -12 16 -16 15 1 -3 32 -17 30 -19
74 -4 102 9 16 17 19 41 14 16 -3 38 -1 49 4 26 15 26 -16 0 -38 -23 -21 -37
-62 -21 -62 14 0 40 25 40 39 0 6 11 18 25 27 18 12 22 20 15 29 -12 14 -3 25
22 25 13 0 18 7 18 25 0 38 16 30 17 -9 1 -26 -4 -35 -19 -39 -12 -3 -17 -10
-13 -17 4 -6 14 -9 22 -6 9 4 21 -1 27 -9 15 -21 42 -1 52 38 5 24 3 27 -20
27 -16 0 -26 6 -26 15 0 8 5 15 11 15 13 0 40 26 39 37 -1 4 3 9 9 11 13 4 42
-53 35 -71 -2 -7 2 -20 11 -27 12 -10 15 -10 15 4 0 9 4 16 10 16 5 0 9 10 7
22 -1 15 4 23 17 26 11 2 16 0 12 -7 -12 -19 3 -32 25 -21 27 15 24 1 -8 -32
-20 -21 -24 -31 -16 -39 6 -6 9 -17 7 -24 -6 -15 27 -30 36 -15 9 14 90 10 90
-5 0 -7 -18 -29 -40 -49 -25 -22 -34 -36 -24 -36 20 0 57 20 67 36 5 9 22 11
57 7 44 -5 50 -4 51 13 3 57 -4 90 -22 106 -10 9 -17 23 -14 32 3 9 7 22 9 29
3 10 17 12 56 7 49 -6 52 -5 80 27 17 19 30 38 30 42 0 5 16 12 35 15 19 4 35
11 35 17 0 5 11 2 25 -7 15 -10 25 -12 25 -5 0 6 10 11 23 10 19 0 20 -1 4 -8
-16 -6 -17 -9 -5 -19 11 -9 18 -7 30 7 15 17 14 20 -7 31 -36 19 -85 102 -85
144 0 20 4 36 9 36 16 0 23 38 11 60 -6 11 -17 20 -24 20 -8 0 -16 18 -20 47
-7 51 -26 103 -38 103 -5 0 -8 19 -8 43 0 24 -5 48 -12 55 -8 8 -6 26 10 70
12 32 22 69 22 81 0 12 4 19 10 16 6 -4 10 6 10 22 0 15 3 38 6 51 4 13 2 22
-5 22 -7 0 -9 -5 -5 -12 4 -7 3 -8 -5 -4 -7 5 -10 20 -7 39 5 33 -4 59 -20 56
-23 -4 -24 3 -5 27 17 22 19 30 9 42 -10 12 -7 19 20 43 31 28 43 59 22 59 -5
0 -10 8 -9 18 0 10 3 12 6 5 6 -17 32 -16 39 1 3 8 36 35 72 60 95 65 109 77
94 83 -14 5 -16 29 -3 37 5 4 20 2 34 -3 23 -9 25 -7 29 24 2 21 -1 36 -8 39
-14 5 -34 -13 -34 -31 0 -7 -3 -13 -7 -13 -19 1 -32 18 -38 53 l-7 38 -167 -5
c-91 -2 -173 -5 -181 -5 -8 0 -45 2 -82 5 -69 6 -84 -1 -48 -24 21 -13 29 -72
10 -72 -21 0 -9 -39 20 -61 32 -26 38 -39 17 -39 -8 0 -26 14 -40 30 -15 17
-34 30 -42 30 -18 0 -18 -5 -5 -31 8 -15 7 -19 -5 -19 -9 0 -15 -9 -15 -24 0
-31 16 -42 36 -25 20 16 73 -6 56 -23 -8 -8 -15 -8 -27 2 -14 11 -17 10 -22
-9 -4 -16 -11 -20 -24 -16 -25 8 -24 -10 1 -35 11 -11 21 -30 21 -42 1 -21 2
-21 6 -3 8 31 20 40 38 25 10 -8 15 -23 12 -37 -2 -13 -1 -23 3 -23 4 0 10 -8
12 -18 4 -14 -4 -24 -28 -37 -26 -14 -34 -24 -32 -42 4 -32 -43 -63 -70 -46
-10 6 -30 9 -44 6 -14 -3 -29 0 -32 6 -9 13 -26 15 -26 2 0 -5 9 -13 20 -16
20 -6 20 -7 -1 -24 -18 -15 -20 -21 -10 -39 7 -12 17 -19 26 -16 8 3 20 2 27
-2 7 -5 23 -7 35 -5 24 3 28 -5 14 -28 -5 -8 -16 -11 -25 -8 -10 4 -19 1 -22
-8 -4 -8 -12 -15 -20 -15 -7 0 -17 -12 -20 -27 -4 -16 -15 -42 -25 -60 -13
-22 -14 -33 -6 -36 8 -2 7 -11 -5 -29 -18 -28 -10 -52 15 -42 11 4 17 1 17 -9
0 -9 -9 -19 -20 -22 -28 -9 -90 57 -90 96 0 25 4 29 26 29 48 0 89 88 49 104
-8 3 -15 12 -15 20 0 19 -31 30 -42 14 -7 -12 -12 -4 -9 15 0 4 -10 7 -23 7
-16 0 -26 -7 -29 -21 -3 -11 -15 -23 -27 -26 l-21 -6 21 -22 c27 -29 12 -39
-29 -19 -17 8 -35 13 -40 10 -11 -7 -21 17 -21 48 0 16 10 26 35 36 19 7 37
20 40 27 2 8 9 12 14 9 5 -3 6 15 3 41 l-5 46 26 -19 c15 -10 32 -36 37 -57
10 -33 13 -37 27 -26 13 11 17 10 28 -5 10 -13 18 -15 31 -8 14 8 13 10 -9 16
-40 10 -52 41 -27 66 19 19 19 22 5 44 -11 16 -13 26 -6 31 16 9 13 25 -3 25
-8 0 -16 4 -18 10 -1 5 -13 7 -25 4 -13 -4 -20 -11 -16 -20 3 -8 -1 -14 -9
-14 -17 0 -58 41 -58 58 0 6 -8 15 -17 21 -15 8 -16 12 -5 22 18 19 15 25 -19
50 -24 17 -33 19 -39 9 -9 -15 -30 -5 -30 14 0 8 9 16 20 19 11 3 20 13 20 22
0 11 -6 15 -18 11 -17 -6 -19 1 -20 76 0 45 3 87 8 93 4 5 6 22 3 38 -5 25 -9
27 -55 27 l-50 0 22 -35z m1000 -87 c0 -6 -7 -7 -16 -4 -9 3 -18 6 -20 6 -3 0
-3 4 1 10 7 11 35 2 35 -12z m-400 -18 c0 -11 -4 -20 -9 -20 -14 0 -23 18 -16
30 10 17 25 11 25 -10z m261 -92 c25 16 33 10 24 -17 -7 -22 -39 -29 -50 -11
-12 20 -37 9 -48 -20 -13 -36 -18 -37 -35 -9 -15 24 -5 41 37 62 22 12 28 12
39 -2 10 -13 16 -13 33 -3z m-201 -13 c9 -11 16 -13 24 -5 12 12 46 14 46 2 0
-11 -40 -33 -50 -27 -5 3 -11 1 -15 -5 -10 -17 -25 -11 -25 10 0 23 -10 26
-28 8 -9 -9 -12 -7 -12 10 0 16 6 22 24 22 13 0 29 -7 36 -15z m-71 -299 c15
-18 -1 -30 -30 -21 -16 5 -18 10 -8 21 15 18 23 18 38 0z m-69 -46 c0 -5 -4
-10 -10 -10 -5 0 -10 5 -10 10 0 6 5 10 10 10 6 0 10 -4 10 -10z m-3 -62 c-3
-8 -6 -5 -6 6 -1 11 2 17 5 13 3 -3 4 -12 1 -19z m38 12 c3 -5 -1 -10 -9 -10
-9 0 -16 5 -16 10 0 6 4 10 9 10 6 0 13 -4 16 -10z m-475 -26 c0 -8 -7 -14
-15 -14 -15 0 -21 21 -9 33 10 9 24 -2 24 -19z m244 -25 c-3 -5 -10 -7 -15 -3
-5 3 -7 10 -3 15 3 5 10 7 15 3 5 -3 7 -10 3 -15z m-24 -33 c0 -3 -4 -8 -10
-11 -5 -3 -10 -1 -10 4 0 6 5 11 10 11 6 0 10 -2 10 -4z m-212 -60 c3 -22 0
-27 -14 -24 -27 5 -42 36 -24 48 22 14 35 7 38 -24z m62 24 c0 -5 -4 -10 -10
-10 -5 0 -10 5 -10 10 0 6 5 10 10 10 6 0 10 -4 10 -10z m290 -123 c8 -3 1 -6
-17 -6 -25 -1 -31 2 -27 14 4 10 10 12 18 7 6 -5 18 -12 26 -15z m-370 -5 c0
-17 -25 -32 -53 -32 -37 0 -31 23 9 31 43 10 44 10 44 1z m110 -12 c0 -5 -5
-10 -11 -10 -5 0 -7 5 -4 10 3 6 8 10 11 10 2 0 4 -4 4 -10z m80 -15 c0 -8 -6
-15 -14 -15 -17 0 -28 14 -19 24 12 12 33 6 33 -9z m360 1 c0 -8 -7 -16 -15
-20 -17 -6 -18 -4 -9 18 8 20 24 21 24 2z m-535 -46 c0 -22 -29 -18 -33 3 -3
14 1 18 15 15 10 -2 18 -10 18 -18z m-52 -67 c-7 -2 -13 -16 -13 -29 0 -13 -5
-24 -10 -24 -16 0 -26 33 -12 38 7 2 10 8 6 13 -3 5 5 9 18 8 13 0 17 -3 11
-6z m537 -3 c0 -5 -4 -10 -10 -10 -5 0 -10 5 -10 10 0 6 5 10 10 10 6 0 10 -4
10 -10z m47 -37 c-15 -16 -17 -16 -17 -1 0 9 6 18 13 21 20 7 22 -2 4 -20z
m-387 -13 c0 -5 -7 -10 -16 -10 -8 0 -12 5 -9 10 3 6 10 10 16 10 5 0 9 -4 9
-10z m110 -70 c0 -5 -5 -10 -11 -10 -5 0 -7 5 -4 10 3 6 8 10 11 10 2 0 4 -4
4 -10z m-142 -68 c3 -9 -2 -13 -14 -10 -9 1 -19 9 -22 16 -3 9 2 13 14 10 9
-1 19 -9 22 -16z m-72 -35 c1 -48 11 -67 34 -67 28 0 25 -14 -11 -44 -35 -30
-95 -37 -85 -11 3 9 1 24 -6 34 -9 15 -7 24 10 49 12 16 22 33 22 37 0 4 8 14
18 21 9 7 17 13 17 14 0 0 0 -15 1 -33z m-66 8 c0 -8 -4 -15 -10 -15 -5 0 -10
7 -10 15 0 8 5 15 10 15 6 0 10 -7 10 -15z m360 -45 c0 -5 -4 -10 -10 -10 -5
0 -10 5 -10 10 0 6 5 10 10 10 6 0 10 -4 10 -10z m490 -33 c0 -4 -11 0 -25 9
-14 9 -25 20 -25 26 0 11 49 -23 50 -35z m-632 -25 c2 -7 -3 -12 -12 -12 -9 0
-16 7 -16 16 0 17 22 14 28 -4z m-214 -93 c-12 -13 -20 -16 -22 -9 -3 7 2 16
9 21 25 16 32 9 13 -12z m-36 -17 c2 -7 -3 -12 -12 -12 -9 0 -16 7 -16 16 0
17 22 14 28 -4z"/>
<path d="M1290 2990 c0 -5 14 -8 31 -6 39 5 51 -20 21 -45 -40 -32 -28 -46 51
-59 86 -14 102 -19 94 -26 -10 -10 -128 -21 -133 -12 -3 4 -16 8 -29 8 -17 0
-22 -4 -18 -18 5 -21 -32 -42 -75 -42 -31 0 -69 -19 -42 -21 8 0 3 -5 -12 -11
-16 -5 -28 -14 -28 -19 0 -5 -8 -9 -17 -9 -9 0 -14 -2 -11 -5 5 -5 101 22 171
47 15 6 27 17 27 24 0 8 9 14 20 14 11 0 20 -4 20 -9 0 -4 34 -11 75 -14 41
-4 83 -11 92 -16 30 -16 86 -31 92 -25 11 11 -41 44 -70 44 -32 0 -40 16 -11
23 33 9 111 6 117 -3 3 -6 17 -10 31 -10 13 0 24 -5 24 -11 0 -6 -9 -9 -20 -6
-25 6 -40 -12 -30 -38 10 -27 26 -38 75 -54 22 -7 50 -17 63 -24 19 -9 25 -8
32 3 8 13 10 13 10 1 0 -8 2 -12 5 -9 9 9 -7 38 -21 38 -8 0 -14 5 -14 10 0 6
7 10 15 10 8 0 15 -4 15 -10 0 -5 6 -10 13 -10 8 0 20 -12 28 -27 7 -16 30
-46 51 -68 40 -44 60 -67 98 -115 14 -18 31 -38 38 -45 6 -8 12 -22 12 -33 0
-20 -15 -24 -203 -51 -28 -5 -57 -16 -69 -29 -30 -30 -17 -37 23 -14 45 26
125 44 158 37 14 -3 48 -1 76 4 29 5 56 6 66 0 22 -11 106 -129 125 -174 19
-47 33 -37 26 21 -4 41 -3 46 14 42 16 -3 19 -12 17 -51 -1 -26 2 -47 6 -47 5
0 11 -9 14 -20 6 -23 27 -27 27 -5 0 8 5 15 10 15 6 0 10 -4 10 -9 0 -24 33
-18 60 11 25 28 30 29 36 14 4 -9 2 -27 -4 -39 -5 -12 -13 -30 -16 -40 -3 -9
-12 -17 -21 -17 -17 0 -20 -26 -4 -36 6 -3 14 -1 18 5 4 6 26 13 50 15 23 2
44 6 47 8 2 3 6 23 8 44 2 21 9 40 15 42 12 4 15 -14 12 -65 -2 -28 1 -33 19
-33 18 0 21 4 16 24 -9 35 1 36 49 9 57 -32 135 -118 135 -149 0 -28 -16 -31
-42 -7 -11 9 -18 11 -18 5 0 -7 4 -12 9 -12 14 0 33 -64 25 -83 -3 -10 -1 -17
4 -17 6 0 14 -16 18 -35 9 -49 25 -33 22 22 -3 47 15 71 25 33 3 -11 13 -20
24 -20 20 -1 63 -33 63 -47 0 -5 -18 -21 -41 -36 -33 -22 -47 -25 -83 -21 -38
6 -43 9 -39 28 4 21 4 21 -11 2 -9 -11 -16 -24 -16 -30 0 -5 -6 -2 -13 8 -14
20 -42 13 -51 -12 -3 -9 -16 -35 -29 -57 -13 -22 -40 -80 -61 -130 -20 -49
-41 -99 -47 -110 -29 -62 -91 -251 -105 -320 -8 -44 -20 -104 -25 -132 l-10
-53 -48 0 c-26 0 -90 -3 -142 -6 -71 -5 -91 -4 -83 5 6 6 30 15 55 20 30 6 36
9 17 10 -61 2 -80 33 -31 52 22 8 24 12 13 19 -10 7 -11 10 -2 10 6 0 12 8 12
18 0 9 11 34 25 54 14 20 25 46 25 57 0 12 3 21 8 21 4 0 13 15 20 32 21 53
55 121 74 150 10 14 16 33 13 40 -4 9 4 19 20 26 26 12 30 32 7 40 -7 2 -12
-6 -12 -17 0 -26 -5 -26 -31 0 -20 20 -21 26 -11 70 8 34 8 57 1 79 -6 17 -9
40 -6 53 6 24 -3 79 -26 167 l-15 55 -13 -32 c-15 -37 -25 -42 -32 -15 -4 13
-5 11 -6 -5 0 -13 -5 -23 -11 -23 -5 0 -10 -19 -11 -42 l-1 -43 -12 29 -13 29
-7 -29 c-6 -22 -9 -25 -17 -13 -6 10 -9 7 -9 -13 0 -15 -4 -29 -9 -32 -5 -3
-6 23 -3 59 3 44 1 65 -6 65 -6 0 -9 8 -6 18 4 9 -5 4 -20 -13 -14 -16 -26
-34 -26 -40 0 -5 -5 -3 -10 5 -14 21 -13 -5 0 -31 8 -15 8 -19 -2 -17 -9 2
-12 -7 -11 -27 1 -16 -2 -46 -7 -65 -8 -28 -6 -42 11 -74 11 -21 18 -45 14
-54 -3 -8 -1 -20 4 -26 11 -13 3 -66 -10 -66 -5 0 -9 12 -9 26 0 32 -15 61
-39 74 -16 8 -18 7 -14 -10 3 -11 11 -25 19 -31 14 -11 20 -49 8 -49 -3 0 -15
10 -26 23 l-20 22 7 -25 c10 -36 16 -87 9 -72 -9 19 -36 -22 -28 -42 10 -25
-16 -76 -37 -76 -11 0 -19 5 -19 11 0 7 -9 0 -20 -14 -11 -14 -20 -30 -20 -36
0 -6 -9 -11 -20 -11 -11 0 -25 -9 -32 -20 -7 -11 -20 -20 -29 -20 -9 0 -26 -9
-39 -20 -26 -22 -60 -26 -78 -8 -8 8 -15 8 -25 0 -14 -12 -26 -4 -88 53 -9 8
-24 15 -33 15 -10 0 -20 9 -23 20 -4 15 -11 18 -28 14 -15 -4 -24 0 -28 10 -4
9 -17 16 -30 16 -13 0 -44 13 -70 30 -25 16 -74 43 -107 59 -55 27 -63 29 -77
16 -8 -8 -19 -15 -24 -15 -5 0 -9 -4 -9 -10 0 -16 22 -12 35 7 11 15 15 14 41
-15 63 -69 164 -165 193 -183 17 -10 31 -23 31 -27 0 -18 122 -106 168 -121
44 -15 47 -18 48 -50 0 -19 5 -36 12 -39 7 -2 12 1 12 7 0 6 5 11 11 11 16 0
0 -20 -24 -31 -81 -35 -147 -117 -98 -120 12 -1 27 -2 34 -3 6 0 13 -12 15
-26 2 -20 1 -22 -8 -10 -9 11 -10 1 -7 -42 3 -32 4 -58 2 -58 -2 0 -11 23 -20
50 -37 111 -43 2 -9 -163 17 -81 16 -77 4 -77 -5 0 -10 9 -10 21 0 15 -5 19
-15 15 -8 -3 -15 -1 -15 4 0 5 -13 24 -30 42 -28 30 -30 31 -30 10 0 -29 45
-139 67 -166 17 -20 17 -20 0 -7 -23 18 -34 7 -13 -14 9 -9 16 -23 16 -31 0
-8 3 -14 8 -14 4 0 8 -11 8 -25 1 -14 5 -36 8 -50 4 -14 2 -25 -4 -25 -5 0
-10 7 -10 17 0 9 -2 14 -5 11 -12 -12 7 -56 26 -61 18 -5 25 -33 20 -74 -1 -7
3 -13 9 -13 6 0 8 -5 5 -10 -3 -6 -2 -10 4 -10 5 0 11 -12 13 -27 2 -23 9 -29
34 -31 32 -3 40 6 65 80 7 21 19 38 26 38 7 0 13 5 13 11 0 5 -4 8 -9 5 -4 -3
-6 7 -3 22 5 24 6 24 13 7 5 -13 8 -15 8 -5 1 8 17 40 37 69 26 38 32 52 19
47 -10 -3 2 13 26 36 42 41 62 74 89 146 7 18 17 35 21 38 15 9 10 -34 -6 -50
-8 -8 -15 -29 -15 -46 0 -21 -11 -46 -31 -72 -17 -21 -29 -42 -25 -45 3 -3 8
2 12 11 10 25 26 19 18 -6 -10 -33 -50 -82 -78 -97 -14 -8 -22 -19 -19 -27 4
-11 15 -6 43 16 24 19 44 28 55 24 13 -5 11 -10 -12 -24 -43 -27 -85 -71 -117
-125 l-18 -30 31 32 c17 18 34 33 39 33 4 0 22 16 41 35 18 19 37 35 42 35 5
0 9 6 9 14 0 8 8 17 18 21 9 3 28 20 42 37 l24 31 -27 -18 c-15 -10 -31 -24
-35 -32 -5 -8 -15 -11 -25 -7 -20 7 -23 24 -4 24 7 0 42 29 77 65 35 36 68 65
72 65 16 0 7 -20 -23 -55 -31 -35 -29 -46 4 -21 9 7 17 18 17 25 0 6 7 11 15
11 8 0 15 -4 15 -9 0 -12 -29 -41 -41 -41 -5 0 -9 -6 -9 -13 0 -7 -9 -18 -21
-25 -13 -8 -18 -19 -15 -29 5 -11 2 -14 -10 -9 -14 5 -15 4 -4 -9 9 -11 16
-13 24 -5 5 5 14 10 18 10 18 0 6 -16 -32 -44 -22 -17 -40 -35 -40 -42 0 -7
-6 -14 -13 -17 -9 -3 -9 -8 3 -22 13 -15 12 -19 -8 -35 -12 -10 -22 -21 -22
-24 0 -3 32 -6 70 -6 l70 0 0 33 c0 17 5 39 11 47 8 12 9 10 4 -7 -4 -15 -2
-23 6 -23 10 0 10 -3 1 -12 -37 -37 -27 -38 443 -38 l455 0 0 799 c0 794 0
799 -20 794 -15 -4 -20 -14 -20 -40 0 -28 -3 -34 -16 -29 -12 5 -15 2 -10 -10
4 -11 2 -15 -6 -11 -7 2 -39 10 -70 17 -59 13 -72 24 -40 32 19 5 29 58 11 58
-6 0 -9 5 -7 12 8 22 60 14 87 -12 23 -23 26 -23 29 -7 3 15 11 18 33 15 l29
-5 0 113 c0 104 -2 113 -20 119 -26 8 -26 25 0 18 20 -5 20 -2 20 560 l-1 566
-26 -10 c-20 -7 -30 -6 -42 6 -15 13 -119 15 -829 15 -527 0 -812 -3 -812 -10z
m260 -31 c0 -16 -4 -28 -9 -25 -8 5 -3 56 5 56 2 0 4 -14 4 -31z m-85 -39 c3
-5 -1 -10 -9 -10 -9 0 -16 5 -16 10 0 6 4 10 9 10 6 0 13 -4 16 -10z m820
-150 c-3 -5 -10 -10 -16 -10 -5 0 -9 5 -9 10 0 6 7 10 16 10 8 0 12 -4 9 -10z
m17 -47 c27 -24 22 -43 -11 -43 -31 0 -48 29 -28 49 14 14 17 14 39 -6z m371
-27 c8 -19 -15 -37 -32 -26 -17 10 -7 40 13 40 7 0 16 -6 19 -14z m-118 -36
c3 -5 1 -10 -4 -10 -6 0 -11 5 -11 10 0 6 2 10 4 10 3 0 8 -4 11 -10z m35 -95
c0 -8 -7 -15 -15 -15 -8 0 -15 7 -15 15 0 8 7 15 15 15 8 0 15 -7 15 -15z
m376 -86 c7 -12 -15 -31 -28 -23 -4 3 -8 12 -8 20 0 17 26 19 36 3z m-79 -31
c-3 -8 -6 -5 -6 6 -1 11 2 17 5 13 3 -3 4 -12 1 -19z m-581 -12 c3 -14 3 -30
-1 -36 -11 -17 -35 8 -35 36 0 32 28 31 36 0z m118 -29 c6 -9 7 -19 4 -23 -9
-8 -38 20 -38 36 0 16 21 8 34 -13z m196 4 c13 -25 13 -31 -2 -31 -23 0 -41
18 -35 34 9 22 24 20 37 -3z m260 -33 c0 -12 -14 -10 -28 4 -19 19 -14 29 8
16 11 -7 20 -16 20 -20z m-406 -4 c4 -11 1 -14 -11 -12 -9 2 -18 9 -21 16 -6
18 25 15 32 -4z m486 -27 c0 -20 -1 -20 -16 -5 -9 9 -13 21 -9 27 10 16 25 3
25 -22z m-560 3 c0 -5 -2 -10 -4 -10 -3 0 -8 5 -11 10 -3 6 -1 10 4 10 6 0 11
-4 11 -10z m-40 -10 c0 -5 -4 -10 -10 -10 -5 0 -10 5 -10 10 0 6 5 10 10 10 6
0 10 -4 10 -10z m332 -65 c-4 -5 -5 -18 -3 -28 2 -16 -1 -17 -18 -7 -25 13
-28 30 -5 30 13 0 15 6 9 28 -6 26 -6 26 8 7 9 -11 12 -24 9 -30z m230 -49
c21 -26 22 -35 3 -42 -8 -3 -26 4 -41 15 -17 13 -41 21 -65 21 -22 0 -39 5
-39 10 0 6 9 10 20 10 11 0 20 5 20 10 0 18 83 -2 102 -24z m63 -26 c3 -5 -1
-10 -10 -10 -9 0 -13 5 -10 10 3 6 8 10 10 10 2 0 7 -4 10 -10z m-455 -85 c14
-17 4 -58 -13 -52 -14 4 -22 67 -9 67 5 0 15 -7 22 -15z m175 -3 c-3 -3 -11 0
-18 7 -9 10 -8 11 6 5 10 -3 15 -9 12 -12z m53 -4 c7 -7 12 -26 12 -42 l-1
-31 -24 30 c-14 17 -25 36 -25 43 0 15 22 16 38 0z m111 -29 c7 -16 11 -33 8
-36 -3 -3 -26 5 -51 17 -57 27 -61 50 -8 50 32 0 39 -4 51 -31z m65 -15 c9
-24 0 -28 -23 -12 -12 8 -18 18 -14 21 12 12 31 7 37 -9z m-84 -64 c0 -5 -9
-10 -20 -10 -11 0 -20 5 -20 10 0 6 9 10 20 10 11 0 20 -4 20 -10z m50 -35
c15 -18 13 -20 -17 -29 -24 -8 -38 7 -29 29 7 19 30 19 46 0z m-610 -175 c0
-5 -4 -10 -10 -10 -5 0 -10 5 -10 10 0 6 5 10 10 10 6 0 10 -4 10 -10z m430
-100 c0 -5 -5 -10 -11 -10 -5 0 -7 5 -4 10 3 6 8 10 11 10 2 0 4 -4 4 -10z
m-574 -193 c15 -9 17 -74 4 -117 -7 -24 -7 -23 -13 10 -9 53 -16 147 -10 130
3 -8 12 -19 19 -23z m-29 -119 c-3 -8 -6 -5 -6 6 -1 11 2 17 5 13 3 -3 4 -12
1 -19z m-37 -364 c0 -8 -52 -77 -68 -91 -12 -10 -13 -15 -2 -28 8 -10 9 -15 1
-15 -6 0 -11 -9 -11 -20 0 -23 -10 -26 -29 -7 -11 10 -11 8 -2 -10 9 -18 7
-29 -11 -60 -31 -55 -69 -93 -92 -93 -14 0 -17 -3 -9 -8 10 -6 10 -16 1 -45
-6 -20 -15 -37 -19 -37 -16 0 -39 33 -39 56 0 22 -2 24 -21 13 -14 -7 -18 -14
-10 -18 7 -5 5 -19 -10 -47 l-21 -39 7 50 c4 28 7 57 6 65 -1 8 -1 49 -1 91 0
56 -6 87 -21 118 -24 50 -18 64 19 50 42 -17 232 14 252 40 18 23 80 51 80 35z
m27 -130 c-3 -3 -12 -4 -19 -1 -8 3 -5 6 6 6 11 1 17 -2 13 -5z m243 -44 c0
-5 -7 -10 -15 -10 -8 0 -15 5 -15 10 0 6 7 10 15 10 8 0 15 -4 15 -10z m-113
-252 c-3 -8 -6 -5 -6 6 -1 11 2 17 5 13 3 -3 4 -12 1 -19z m9 -52 c-8 -38 -7
-37 -45 -30 -27 6 -31 10 -27 33 2 14 5 26 5 26 1 0 17 0 37 0 34 0 35 -1 30
-29z m-415 -55 c-6 -10 -7 -21 -4 -25 4 -4 -3 -9 -15 -13 -22 -5 -31 -23 -12
-23 6 0 10 -4 10 -10 0 -5 -20 -9 -45 -8 -33 2 -45 6 -45 18 0 25 21 92 27 86
3 -3 12 1 20 9 12 13 18 13 44 0 24 -13 28 -19 20 -34z m-98 -144 c-8 -13 -23
3 -23 26 0 20 0 20 14 2 8 -11 12 -23 9 -28z m111 8 c-4 -8 -8 -15 -10 -15 -2
0 -4 7 -4 15 0 8 4 15 10 15 5 0 7 -7 4 -15z m116 -25 c0 -5 -5 -10 -11 -10
-5 0 -7 5 -4 10 3 6 8 10 11 10 2 0 4 -4 4 -10z m172 -48 c-7 -5 -10 -16 -6
-28 7 -18 6 -18 -12 -1 -16 15 -17 19 -4 27 8 5 20 10 25 10 6 0 4 -4 -3 -8z
m-392 -106 c0 -3 -11 4 -25 16 -14 12 -25 31 -25 42 0 16 5 13 25 -16 14 -20
25 -39 25 -42z m344 33 c-2 -4 -13 -5 -24 -2 -19 5 -19 6 -3 18 13 10 20 10
25 2 4 -6 5 -14 2 -18z m-368 -59 c11 0 13 -6 8 -22 -8 -28 -5 -25 -34 -30
-26 -3 -27 1 -14 62 5 22 7 23 15 7 6 -9 17 -17 25 -17z m395 -3 c-6 -8 -9
-16 -6 -18 2 -3 -5 -5 -15 -5 -18 0 -18 1 -2 18 20 20 40 24 23 5z m-107 -52
c-7 -16 -24 -21 -24 -6 0 8 7 13 27 20 1 1 0 -6 -3 -14z m36 1 c0 -3 -4 -8
-10 -11 -5 -3 -10 -1 -10 4 0 6 5 11 10 11 6 0 10 -2 10 -4z"/>
<path d="M1760 743 c0 -10 5 -25 10 -33 8 -13 15 -10 42 18 l33 32 -43 0 c-33
0 -42 -4 -42 -17z"/>
<path d="M1760 475 c0 -8 7 -15 16 -15 14 0 14 3 4 15 -7 8 -14 15 -16 15 -2
0 -4 -7 -4 -15z"/>
<path d="M223 2965 c-17 -19 -16 -25 2 -25 8 0 15 2 15 4 0 2 3 11 6 20 8 20
-7 20 -23 1z"/>
<path d="M1195 2950 c-3 -5 1 -10 9 -10 9 0 16 5 16 10 0 6 -4 10 -9 10 -6 0
-13 -4 -16 -10z"/>
<path d="M1225 2910 c3 -5 10 -10 16 -10 5 0 9 5 9 10 0 6 -7 10 -16 10 -8 0
-12 -4 -9 -10z"/>
<path d="M2 2805 c0 -16 2 -22 5 -12 2 9 2 23 0 30 -3 6 -5 -1 -5 -18z"/>
<path d="M1148 2703 c7 -3 16 -2 19 1 4 3 -2 6 -13 5 -11 0 -14 -3 -6 -6z"/>
<path d="M945 2679 c-4 -6 -5 -12 -2 -15 2 -3 7 2 10 11 7 17 1 20 -8 4z"/>
<path d="M317 2663 c-11 -3 -16 -10 -13 -20 3 -8 6 -18 6 -21 0 -4 10 -8 23
-8 20 -1 23 2 19 27 -2 16 -7 28 -11 28 -3 -1 -14 -3 -24 -6z"/>
<path d="M1005 2660 c-3 -5 -1 -10 4 -10 6 0 11 5 11 10 0 6 -2 10 -4 10 -3 0
-8 -4 -11 -10z"/>
<path d="M912 2568 c5 -15 28 -23 28 -10 0 5 -7 13 -16 16 -10 4 -14 1 -12 -6z"/>
<path d="M880 2540 c0 -5 5 -10 11 -10 5 0 7 5 4 10 -3 6 -8 10 -11 10 -2 0
-4 -4 -4 -10z"/>
<path d="M510 2515 c0 -8 7 -15 15 -15 8 0 15 7 15 15 0 8 -7 15 -15 15 -8 0
-15 -7 -15 -15z"/>
<path d="M2120 2288 c1 -32 1 -32 13 -10 7 12 16 19 21 15 4 -4 4 0 0 10 -11
30 -34 20 -34 -15z"/>
<path d="M1464 2263 c3 -22 11 -23 24 -3 10 16 9 18 -7 17 -10 0 -18 -7 -17
-14z"/>
<path d="M1671 2205 c-65 -17 -68 -40 -5 -30 46 6 113 34 87 35 -6 0 -17 2
-25 4 -7 2 -33 -2 -57 -9z"/>
<path d="M1428 2159 c-21 -23 -38 -44 -38 -48 0 -4 -10 -7 -22 -8 -53 -4 -128
-51 -128 -80 0 -8 10 -32 21 -55 14 -28 22 -63 23 -104 0 -34 5 -60 10 -57 9
6 -1 141 -12 158 -16 25 -10 76 10 95 25 23 93 28 101 8 3 -7 6 3 7 22 1 29 3
32 10 15 8 -19 9 -19 9 2 1 12 5 24 11 28 15 9 52 65 43 65 -4 0 -25 -19 -45
-41z"/>
<path d="M2140 2190 c0 -5 3 -10 8 -10 4 0 18 -18 32 -40 25 -40 48 -55 36
-22 -20 52 -76 106 -76 72z"/>
<path d="M1120 2051 c0 -5 -9 -13 -20 -16 -11 -3 -20 -13 -20 -21 0 -8 -5 -14
-12 -14 -6 0 -9 -2 -6 -5 2 -3 19 0 36 6 21 7 29 15 25 26 -4 9 0 14 8 13 27
-4 40 0 34 10 -8 13 -45 13 -45 1z"/>
<path d="M2620 2011 c-6 -12 -6 -22 -1 -25 5 -3 7 -15 4 -25 -3 -10 0 -22 7
-26 7 -4 14 1 17 14 3 12 12 21 19 21 22 0 16 23 -11 43 -23 17 -25 17 -35 -2z"/>
<path d="M1430 2017 c0 -3 12 -12 26 -22 15 -9 23 -12 20 -6 -7 11 -46 35 -46
28z"/>
<path d="M1160 2000 c-8 -5 -10 -10 -5 -10 6 0 17 5 25 10 8 5 11 10 5 10 -5
0 -17 -5 -25 -10z"/>
<path d="M2495 2000 c-3 -5 -1 -10 4 -10 6 0 11 5 11 10 0 6 -2 10 -4 10 -3 0
-8 -4 -11 -10z"/>
<path d="M2411 1987 c-6 -8 -9 -21 -6 -29 4 -9 -4 -20 -20 -28 -22 -12 -27
-11 -45 5 -14 13 -17 21 -9 31 17 20 -4 22 -24 2 -17 -18 -16 -19 13 -36 24
-13 29 -22 25 -40 -8 -34 10 -59 50 -66 20 -4 39 -14 42 -22 9 -24 42 -37 59
-24 11 10 16 8 23 -11 12 -32 8 -35 -40 -42 -22 -3 -43 -7 -45 -10 -9 -8 7
-55 20 -60 16 -7 67 4 62 12 -3 4 28 17 67 30 67 21 107 44 107 61 0 10 -90 0
-112 -11 -10 -6 -19 -5 -23 1 -3 5 3 10 14 10 30 0 26 17 -7 34 -16 8 -34 22
-41 30 -12 14 -10 16 8 16 24 0 28 15 6 24 -19 7 -10 55 14 74 14 11 14 14 1
22 -18 11 -30 4 -30 -20 0 -10 -5 -22 -11 -25 -6 -4 -8 -13 -5 -21 6 -15 -22
-34 -41 -27 -18 6 -16 33 1 33 12 0 12 6 3 33 -7 17 -19 40 -28 50 -14 15 -18
15 -28 4z"/>
<path d="M1128 1916 c-10 -7 -18 -16 -18 -20 0 -4 -7 -14 -15 -22 -17 -17 -20
-44 -6 -44 5 0 20 13 33 28 13 16 28 27 34 25 5 -2 19 3 29 12 17 13 18 16 5
25 -20 13 -41 12 -62 -4z"/>
<path d="M2720 1880 c-12 -8 -11 -10 8 -10 12 0 22 5 22 10 0 13 -11 13 -30 0z"/>
<path d="M935 1847 c-14 -20 -14 -22 7 -31 20 -8 20 -10 6 -13 -27 -7 -21 -21
6 -16 17 4 27 -1 36 -16 6 -12 16 -19 21 -15 6 4 4 15 -5 30 -9 13 -16 29 -16
36 0 8 -9 21 -20 30 -18 16 -20 16 -35 -5z"/>
<path d="M2570 1860 c-8 -5 -12 -11 -9 -14 3 -3 14 1 25 9 21 16 8 20 -16 5z"/>
<path d="M2624 1861 c-2 -2 -4 -13 -4 -23 0 -10 -7 -18 -16 -18 -22 0 -13 -34
10 -38 10 -2 22 2 27 9 6 10 11 10 23 -1 22 -17 33 -4 18 20 -7 12 -8 21 -2
25 22 13 9 32 -21 31 -17 -1 -32 -3 -35 -5z"/>
<path d="M2071 1834 c0 -11 3 -14 6 -6 3 7 2 16 -1 19 -3 4 -6 -2 -5 -13z"/>
<path d="M2177 1789 c4 -15 8 -17 14 -8 8 14 3 29 -11 29 -4 0 -6 -9 -3 -21z"/>
<path d="M1503 1733 c-16 -6 -17 -33 -3 -33 6 0 20 9 32 20 21 19 21 20 2 19
-10 0 -25 -3 -31 -6z"/>
<path d="M1830 1730 c-12 -8 -13 -13 -2 -30 19 -32 14 -43 -33 -73 -46 -29
-57 -47 -30 -47 8 0 33 18 55 40 50 50 77 51 110 5 14 -19 29 -35 34 -35 8 0
1 85 -10 113 -2 7 -23 13 -45 14 -22 1 -46 6 -53 12 -7 6 -17 6 -26 1z"/>
<path d="M1580 1710 c0 -5 5 -10 10 -10 6 0 10 5 10 10 0 6 -4 10 -10 10 -5 0
-10 -4 -10 -10z"/>
<path d="M1751 1684 c0 -11 3 -14 6 -6 3 7 2 16 -1 19 -3 4 -6 -2 -5 -13z"/>
<path d="M1671 1664 c0 -11 3 -14 6 -6 3 7 2 16 -1 19 -3 4 -6 -2 -5 -13z"/>
<path d="M1569 1635 c-15 -8 -30 -22 -33 -31 -6 -16 -8 -16 -25 0 -17 15 -19
16 -25 1 -3 -9 -6 -32 -6 -51 0 -37 -15 -46 -23 -14 -3 11 -11 20 -17 20 -7 0
-10 -7 -6 -17 5 -16 5 -16 -8 0 -14 18 -15 18 -25 -2 -16 -30 -13 -44 8 -38
12 3 22 -1 25 -9 8 -20 29 -17 49 6 9 11 26 20 36 20 11 0 23 5 26 10 8 12 47
3 57 -14 4 -6 5 13 3 41 -2 29 0 55 5 58 10 6 2 35 -9 35 -3 -1 -18 -7 -32
-15z"/>
<path d="M1635 1619 c-4 -12 -2 -26 3 -31 15 -15 44 16 36 36 -9 23 -31 20
-39 -5z"/>
<path d="M945 1600 c-3 -5 -15 -10 -26 -10 -10 0 -19 -4 -19 -9 0 -5 -12 -12
-27 -14 -23 -3 -21 -4 9 -6 20 0 40 -6 43 -11 4 -6 14 -9 22 -8 9 2 18 -3 21
-11 3 -9 -1 -11 -17 -6 -16 5 -21 2 -21 -12 0 -11 -5 -24 -12 -31 -9 -9 -7
-17 10 -35 12 -13 22 -29 22 -36 0 -8 10 -11 28 -9 21 2 27 8 28 28 0 14 4 38
8 53 6 20 4 33 -8 46 -9 10 -16 27 -16 39 0 24 -35 49 -45 32z"/>
<path d="M1680 1540 c-19 -16 -29 -30 -22 -30 7 0 27 13 45 30 41 39 23 39
-23 0z"/>
<path d="M682 1528 c2 -12 11 -24 21 -26 24 -5 21 20 -4 36 -19 12 -20 11 -17
-10z"/>
<path d="M735 1520 c-3 -5 1 -10 9 -10 9 0 16 5 16 10 0 6 -4 10 -9 10 -6 0
-13 -4 -16 -10z"/>
<path d="M1981 1504 c0 -11 3 -14 6 -6 3 7 2 16 -1 19 -3 4 -6 -2 -5 -13z"/>
<path d="M2050 1510 c0 -5 5 -10 10 -10 6 0 10 5 10 10 0 6 -4 10 -10 10 -5 0
-10 -4 -10 -10z"/>
<path d="M750 1470 c0 -14 31 -41 41 -35 5 4 9 -1 9 -9 0 -11 9 -16 29 -16 16
0 31 -4 33 -10 2 -5 9 -6 16 -1 10 6 8 12 -10 23 -38 25 -118 57 -118 48z"/>
<path d="M1463 1453 c-12 -2 -27 -12 -35 -20 -11 -15 -11 -16 5 -10 10 4 29 7
41 7 12 0 31 7 42 15 18 14 18 14 -6 13 -14 0 -35 -3 -47 -5z"/>
<path d="M380 1435 c-24 -14 -24 -14 -4 -15 12 0 24 7 28 15 6 18 7 18 -24 0z"/>
<path d="M1360 1374 c0 -18 22 -42 35 -38 8 4 15 1 15 -5 0 -6 7 -11 15 -11
24 0 18 20 -9 30 -13 5 -27 14 -31 19 -6 11 -25 15 -25 5z"/>
<path d="M1678 1344 c-7 -60 41 -73 62 -18 12 31 12 32 -28 43 -29 9 -30 8
-34 -25z"/>
<path d="M480 1360 c0 -5 5 -10 11 -10 5 0 7 5 4 10 -3 6 -8 10 -11 10 -2 0
-4 -4 -4 -10z"/>
<path d="M807 1353 c-9 -8 24 -32 46 -33 11 0 17 -8 17 -22 0 -18 2 -20 9 -9
7 11 12 8 23 -17 12 -31 14 -32 36 -17 26 19 28 47 6 74 -15 17 -19 17 -43 5
-23 -13 -27 -12 -40 6 -13 20 -41 27 -54 13z"/>
<path d="M560 1311 c0 -5 7 -12 16 -15 22 -9 24 -8 24 9 0 8 -9 15 -20 15 -11
0 -20 -4 -20 -9z"/>
<path d="M1064 1311 c-17 -4 -36 -11 -42 -15 -16 -10 -15 -59 0 -74 10 -10 10
-15 -1 -21 -10 -7 -11 -21 -5 -62 11 -64 7 -139 -7 -139 -5 0 -9 21 -8 48 1
26 -5 64 -14 85 -15 34 -19 37 -51 35 -41 -2 -53 6 -37 26 9 11 7 15 -9 19
-16 4 -24 -4 -40 -40 -24 -54 -25 -67 -5 -83 22 -18 18 -32 -7 -28 -15 2 -22
9 -20 20 2 11 -10 23 -32 33 -31 15 -37 15 -56 2 -12 -8 -30 -12 -42 -9 -31 8
-40 -18 -13 -40 16 -13 32 -16 54 -12 24 5 31 3 31 -9 0 -9 -4 -19 -10 -22
-19 -12 -11 -45 11 -45 14 0 19 6 17 18 -6 35 12 43 39 18 22 -20 24 -27 14
-40 -10 -11 -9 -19 1 -35 15 -24 40 -29 32 -6 -3 8 -2 20 2 27 6 9 10 6 14
-11 6 -26 63 -51 121 -51 28 0 41 6 53 25 13 20 21 23 49 18 17 -3 36 -6 41
-7 5 0 11 5 13 12 3 8 -5 12 -25 12 -34 0 -62 34 -62 74 0 19 6 25 34 30 19 4
36 12 38 19 5 15 2 67 -5 87 -13 38 -16 84 -6 96 8 10 9 14 0 14 -6 0 -11 9
-11 20 0 21 -6 22 -56 11z m16 -214 c0 -12 -6 -17 -17 -15 -20 4 -28 30 -18
56 6 16 8 15 21 -2 8 -11 14 -28 14 -39z"/>
<path d="M699 1193 c-6 -7 -19 -13 -27 -13 -14 0 -14 -2 2 -17 16 -17 18 -17
37 6 17 21 23 23 40 13 15 -10 19 -9 19 2 0 19 -57 26 -71 9z"/>
<path d="M557 1183 c-4 -3 -7 -21 -7 -40 0 -23 5 -33 15 -33 13 0 15 7 9 38
-8 43 -8 44 -17 35z"/>
<path d="M605 1159 c-10 -15 3 -25 16 -12 7 7 7 13 1 17 -6 3 -14 1 -17 -5z"/>
<path d="M500 1146 c0 -9 7 -16 16 -16 17 0 14 22 -4 28 -7 2 -12 -3 -12 -12z"/>
<path d="M304 1129 c-3 -6 -1 -16 5 -22 8 -8 11 -5 11 11 0 24 -5 28 -16 11z"/>
<path d="M207 1110 c-30 -24 -47 -26 -47 -4 0 11 -5 14 -16 10 -9 -3 -20 -6
-26 -6 -6 0 -7 -7 -4 -16 4 -9 1 -23 -5 -30 -19 -24 48 -17 71 6 11 11 34 23
50 27 17 3 30 12 30 19 0 20 -23 17 -53 -6z"/>
<path d="M1293 1113 c-7 -2 -13 -14 -13 -25 0 -14 5 -18 16 -14 9 3 19 6 24 6
4 0 6 9 3 20 -5 21 -9 22 -30 13z"/>
<path d="M481 1084 c0 -11 3 -14 6 -6 3 7 2 16 -1 19 -3 4 -6 -2 -5 -13z"/>
<path d="M645 1049 c-4 -6 -5 -13 -2 -16 7 -7 27 6 27 18 0 12 -17 12 -25 -2z"/>
<path d="M1131 1028 c-12 -31 -4 -41 25 -34 20 6 24 3 24 -18 0 -15 8 -30 19
-36 28 -15 31 -13 31 20 0 20 5 30 15 30 8 0 15 7 15 15 0 19 -56 21 -64 3 -2
-7 -4 -2 -3 12 2 20 -3 26 -26 28 -21 3 -29 -2 -36 -20z"/>
<path d="M255 1010 c3 -5 10 -10 16 -10 5 0 9 5 9 10 0 6 -7 10 -16 10 -8 0
-12 -4 -9 -10z"/>
<path d="M452 1008 c-15 -15 -16 -38 -1 -38 23 0 48 21 43 35 -7 18 -26 19
-42 3z"/>
<path d="M584 1006 c-9 -24 0 -71 14 -68 23 4 12 -24 -18 -46 -17 -13 -44 -22
-65 -22 -19 0 -35 -4 -35 -10 0 -5 -9 -10 -20 -10 -11 0 -20 -4 -20 -10 0 -5
-12 -10 -27 -11 -38 -1 -70 -14 -55 -23 8 -4 5 -17 -9 -41 -22 -37 -39 -45
-39 -20 0 8 -5 15 -10 15 -6 0 -13 -7 -16 -15 -8 -20 -30 -19 -38 2 -6 15 -8
15 -20 -2 -12 -16 -15 -16 -44 -1 -42 22 -56 20 -72 -8 -12 -24 -37 -36 -72
-36 -13 0 -18 8 -18 25 0 14 -4 25 -10 25 -6 0 -10 -33 -10 -80 0 -76 1 -80
22 -80 18 0 98 -46 98 -56 0 -2 -17 -2 -38 -1 -30 2 -37 -1 -36 -16 1 -10 -7
-19 -22 -23 l-24 -6 0 -244 c0 -154 4 -244 10 -244 10 0 37 20 69 51 43 41
138 117 153 122 9 3 -24 -34 -75 -83 -80 -77 -89 -89 -67 -89 14 0 34 6 44 14
11 8 28 15 38 15 10 0 18 5 18 11 0 6 9 8 20 4 16 -5 19 -3 13 11 -5 12 -3 15
6 9 10 -5 11 -2 6 14 -6 19 -2 21 27 21 47 0 81 -25 68 -50 -13 -24 -13 -50 0
-50 6 0 10 9 10 20 0 13 7 20 20 20 13 0 20 -7 20 -20 0 -11 5 -20 10 -20 6 0
10 9 10 20 0 11 -4 20 -10 20 -5 0 -10 6 -10 13 1 24 29 48 64 54 32 5 36 3
36 -17 0 -13 -8 -29 -17 -36 -11 -8 -13 -13 -5 -14 6 0 12 -8 12 -17 0 -14 10
-18 45 -20 27 -1 45 2 45 9 0 6 9 8 22 5 12 -3 29 -2 39 3 12 7 21 5 29 -5 14
-17 80 -21 80 -5 0 6 14 10 30 10 17 0 30 -5 30 -12 0 -6 8 -1 19 10 24 28 45
29 36 2 -8 -25 10 -27 20 -2 7 16 8 15 16 -3 7 -16 8 -14 4 8 -5 23 -2 30 13
34 30 7 36 94 20 310 -1 9 -17 11 -60 6 -50 -5 -58 -3 -58 11 0 20 -9 20 -32
0 -16 -16 -18 -15 -24 0 -5 13 -14 15 -35 11 -35 -8 -69 10 -69 35 0 18 6 20
53 16 28 -2 42 -2 30 1 -13 2 -23 9 -23 15 0 5 7 8 15 5 8 -4 17 -2 20 3 4 6
1 10 -4 10 -6 0 -11 4 -11 9 0 10 173 36 194 28 20 -8 28 6 20 38 -4 16 -13
25 -26 25 -10 0 -37 14 -59 32 -37 30 -40 31 -58 14 -21 -19 -41 -14 -41 10 0
8 -7 29 -16 46 -12 22 -19 27 -27 19 -6 -6 -20 -11 -32 -11 -12 0 -26 -5 -32
-11 -8 -8 -13 -8 -17 0 -4 6 -20 11 -36 11 -15 0 -30 4 -32 10 -1 5 -34 12
-71 16 -60 6 -72 4 -97 -15 -16 -11 -33 -21 -39 -21 -16 0 0 37 30 71 15 17
26 35 24 40 -8 12 25 19 106 22 41 1 76 4 79 7 3 3 14 10 25 16 15 8 21 23 23
58 3 46 4 48 30 41 15 -4 30 -12 34 -18 9 -15 14 -9 22 27 6 25 5 28 -13 23
-12 -3 -23 -1 -26 3 -8 13 -45 8 -45 -6 0 -18 -34 -10 -38 9 -2 8 2 18 7 22
16 9 13 25 -4 25 -9 0 -18 -6 -21 -14z m-194 -406 c-8 -5 -22 -9 -30 -9 -10 0
-8 3 5 9 27 12 43 12 25 0z m-236 -11 c19 -9 29 -9 39 -1 25 21 53 -38 30 -62
-4 -4 -8 -15 -8 -24 0 -20 -71 -30 -88 -13 -8 8 -5 11 11 11 25 0 30 15 8 23
-9 4 -12 14 -9 26 4 16 1 21 -16 21 -21 0 -27 10 -14 23 9 10 18 9 47 -4z
m431 -138 c-6 -5 -28 -19 -50 -30 l-40 -21 35 30 c19 16 41 30 49 30 9 0 11
-3 6 -9z m-249 -316 c-4 -11 1 -15 18 -15 14 0 26 6 29 13 2 6 8 9 12 4 12
-11 -5 -24 -42 -32 -31 -6 -33 -5 -33 19 0 14 5 26 11 26 6 0 9 -7 5 -15z
m544 -45 c0 -21 -15 -27 -25 -10 -7 12 2 30 16 30 5 0 9 -9 9 -20z"/>
<path d="M1280 999 c0 -5 5 -7 10 -4 6 3 10 8 10 11 0 2 -4 4 -10 4 -5 0 -10
-5 -10 -11z"/>
<path d="M130 985 c0 -8 8 -16 18 -16 33 -2 37 -4 66 -31 23 -23 27 -33 23
-58 -6 -25 -3 -30 13 -30 21 0 28 16 9 22 -5 2 -7 11 -4 21 8 18 25 23 25 7 0
-22 29 -8 43 19 18 36 14 41 -31 41 -26 0 -35 5 -39 21 -4 16 -11 19 -27 14
-49 -15 -66 -17 -66 -6 0 6 -7 11 -15 11 -8 0 -15 -7 -15 -15z m155 -55 c3 -5
1 -10 -4 -10 -6 0 -11 5 -11 10 0 6 2 10 4 10 3 0 8 -4 11 -10z"/>
<path d="M515 989 c-4 -6 -4 -13 -1 -16 8 -8 36 5 36 17 0 13 -27 13 -35 -1z"/>
<path d="M25 930 c3 -5 10 -10 16 -10 5 0 9 5 9 10 0 6 -7 10 -16 10 -8 0 -12
-4 -9 -10z"/>
<path d="M360 921 c-5 -11 -10 -22 -10 -24 0 -9 49 -17 65 -11 14 6 13 9 -6
30 -27 29 -35 30 -49 5z"/>
<path d="M1 839 c-1 -63 2 -78 15 -83 9 -4 24 0 33 8 9 8 35 19 58 24 50 11
82 37 58 46 -8 3 -15 2 -15 -3 0 -5 -9 -11 -20 -14 -16 -4 -20 0 -20 19 0 14
-7 27 -17 31 -10 3 -25 12 -34 20 -14 12 -18 11 -30 -3 -12 -15 -14 -15 -20 7
-4 14 -7 -8 -8 -52z"/>
<path d="M445 900 c-3 -5 -1 -10 4 -10 6 0 11 5 11 10 0 6 -2 10 -4 10 -3 0
-8 -4 -11 -10z"/>
<path d="M1120 900 c0 -5 15 -10 33 -10 24 0 28 3 17 10 -20 13 -50 13 -50 0z"/>
<path d="M1362 835 c0 -16 2 -22 5 -12 2 9 2 23 0 30 -3 6 -5 -1 -5 -18z"/>
<path d="M318 833 c7 -3 16 -2 19 1 4 3 -2 6 -13 5 -11 0 -14 -3 -6 -6z"/>
<path d="M1215 773 l0 -48 -36 3 c-21 2 -40 -2 -44 -8 -8 -13 -62 -4 -83 13
-11 8 -12 5 -6 -19 4 -16 3 -26 -1 -22 -4 4 -8 21 -9 39 -2 39 -26 53 -26 15
0 -35 -15 -33 -30 4 -7 17 -19 30 -27 30 -16 0 -29 -27 -18 -38 4 -4 10 -1 12
6 8 21 18 13 21 -15 1 -16 4 -66 6 -113 5 -119 5 -118 17 -97 5 9 7 22 4 27
-10 16 5 50 21 50 14 0 16 -5 16 -40 0 -165 -2 -182 -20 -178 -12 3 -24 -2
-31 -14 -6 -10 -17 -16 -23 -12 -13 8 -3 -12 19 -37 10 -12 14 -56 15 -168 2
-149 2 -151 24 -151 23 0 29 16 49 145 11 74 12 75 65 75 45 0 50 -2 56 -26 4
-15 4 -64 0 -110 l-6 -84 94 0 c110 0 99 -14 116 155 6 61 16 122 22 137 11
29 40 44 59 32 8 -5 9 -3 4 6 -5 8 -3 11 6 8 7 -2 19 6 26 19 10 20 9 30 -8
61 -12 20 -24 42 -28 47 -4 6 -13 35 -20 67 -11 53 -25 71 -57 73 -17 1 -44
26 -44 41 0 8 -9 14 -20 14 -11 0 -20 6 -20 14 0 7 -11 21 -25 30 -13 9 -32
38 -42 66 -10 27 -20 50 -23 50 -3 0 -5 -21 -5 -47z m-138 -103 c-3 -11 -1
-23 4 -26 14 -8 39 -73 39 -100 0 -24 -15 -30 -36 -16 -6 4 -14 27 -17 52 -3
24 -11 46 -16 48 -15 5 -14 49 2 55 23 10 29 7 24 -13z m373 -249 c-5 -19 -7
-37 -5 -42 3 -4 1 -10 -5 -14 -11 -7 -13 13 -3 68 3 21 10 34 14 30 5 -5 4
-24 -1 -42z m-340 -36 c11 7 18 -6 23 -50 3 -24 9 -31 31 -33 21 -3 27 -8 24
-25 -2 -17 -10 -22 -36 -24 -18 -1 -40 -4 -48 -7 -19 -7 -22 3 -26 86 -3 53
-1 65 9 57 6 -6 17 -8 23 -4z"/>
<path d="M280 780 c0 -5 5 -10 11 -10 5 0 7 5 4 10 -3 6 -8 10 -11 10 -2 0 -4
-4 -4 -10z"/>
<path d="M860 750 c0 -5 5 -10 10 -10 6 0 10 5 10 10 0 6 -4 10 -10 10 -5 0
-10 -4 -10 -10z"/>
<path d="M1380 700 c0 -5 5 -10 10 -10 6 0 10 5 10 10 0 6 -4 10 -10 10 -5 0
-10 -4 -10 -10z"/>
<path d="M880 610 c0 -5 9 -10 19 -10 11 0 23 5 26 10 4 6 -5 10 -19 10 -14 0
-26 -4 -26 -10z"/>
<path d="M1436 300 c-13 -44 -20 -76 -35 -183 -10 -64 -14 -114 -10 -110 4 5
17 46 29 93 26 101 49 170 64 189 9 12 7 13 -8 8 -12 -5 -22 -3 -27 5 -6 10
-9 9 -13 -2z"/>
<path d="M1560 130 c0 -5 5 -10 10 -10 6 0 10 5 10 10 0 6 -4 10 -10 10 -5 0
-10 -4 -10 -10z"/>
<path d="M1759 71 c-18 -20 -31 -71 -18 -71 5 0 16 17 26 38 9 20 19 40 21 45
7 14 -13 5 -29 -12z"/>
<path d="M1905 40 c-3 -5 -2 -10 4 -10 5 0 13 5 16 10 3 6 2 10 -4 10 -5 0
-13 -4 -16 -10z"/>
<path d="M410 20 c0 -11 7 -20 15 -20 8 0 15 9 15 20 0 11 -7 20 -15 20 -8 0
-15 -9 -15 -20z"/>
</g>
</svg>
